<svg width="1763" height="525" viewBox="0 0 1763 525" fill="none" xmlns="http://www.w3.org/2000/svg">
<path d="M605.8 142.7C568.9 142.7 536.3 150.3 508 165.5C479.8 180.7 457.8 202.1 442.2 229.7C426.6 257.3 418.7 289.3 418.7 325.8C418.7 361.9 426.4 393.5 441.8 420.6C457.2 447.8 479.3 468.8 507.9 483.8C536.6 498.8 570.5 506.3 609.6 506.3C642.6 506.3 672.5 500.9 699.2 490C725.9 479.1 748.6 463.3 767.3 442.4L699 375.4C674.2 398 648.2 409.3 620.8 409.3C603.9 409.3 589.4 404.7 577.5 395.6C565.5 386.5 557 373.4 551.8 356.5H790.3C790.7 352.2 791 345.4 791 336.3C791 276.3 774.7 229.1 742.1 194.6C709.4 160 664 142.7 605.8 142.7ZM549.1 291.9C552.6 273.7 559.3 259.1 569.3 248.2C579.3 237.3 591.9 231.9 607.1 231.9C623.2 231.9 636.2 237.6 646.2 248.8C656.2 260.1 661 274.4 660.5 291.8H549.1V291.9Z" fill="white"/>
<path d="M955.1 203.3V147.3H823.5V501.8H955.1V332.3C955.1 309.7 963 291.9 978.9 278.9C994.8 265.9 1016.4 259.3 1043.7 259.3C1053.7 259.3 1061.3 259.7 1066.5 260.6V142C1042.6 142 1021.2 147.3 1002.3 158C983.5 168.7 967.7 183.8 955.1 203.3Z" fill="white"/>
<path d="M203.4 142C100.6 142 17.3 219.5 17.3 315V501.7H149V480.5V315.1V286.4C149 256.3 173.4 232 203.4 232C233.4 232 257.8 256.4 257.8 286.4V315.1V480.6V501.8H389.4V315.1C389.5 219.5 306.2 142 203.4 142Z" fill="white"/>
<path d="M1348.4 188.3C1336.2 173.5 1321.7 162.2 1304.7 154.4C1287.8 146.6 1268.9 142.7 1248 142.7C1215.8 142.7 1187.6 150.1 1163.3 164.9C1139 179.7 1120.2 200.6 1106.9 227.8C1093.6 255 1087 286.6 1087 322.6C1087 359.5 1093.8 391.8 1107.5 419.4C1121.2 447 1140.4 468.4 1165.2 483.6C1190 498.8 1218.6 506.4 1251.2 506.4C1271.2 506.4 1289.4 502.5 1305.9 494.7C1322.4 486.9 1336.5 475.8 1348.3 461.5V501.9H1480V38.9L1348.4 18.3V188.3ZM1330.8 383.5C1319.1 398.1 1303.6 405.3 1284.5 405.3C1264.9 405.3 1249.3 398 1237.6 383.5C1225.9 368.9 1220 349.7 1220 325.8C1220 302.3 1225.9 283.3 1237.6 268.8C1249.3 254.2 1265 247 1284.5 247C1303.6 247 1319 254.3 1330.8 268.8C1342.5 283.4 1348.4 302.4 1348.4 325.8C1348.4 349.7 1342.5 368.9 1330.8 383.5Z" fill="white"/>
<path d="M1721.3 394.2C1707.4 401.2 1695 404.6 1684.2 404.6C1674.2 404.6 1666.3 401.5 1660.4 395.1C1654.5 388.8 1651.6 379.8 1651.6 368.1V249.6H1738.9V165.5H1651.6V113.9V67.1V65.6L1520.6 45.1V46.6V113.9V165.5V388.4C1520.6 425.3 1532.1 454.4 1555.1 475.7C1578.1 497 1608.7 507.6 1647 507.6C1664.8 507.6 1682.5 505.5 1700.1 501.4C1717.7 497.3 1732.6 491.7 1744.7 484.8L1721.3 394.2Z" fill="white"/>
</svg>
